<mxfile host="app.diagrams.net" agent="Mozilla/5.0 (Windows NT 10.0; Win64; x64; rv:137.0) Gecko/20100101 Firefox/137.0" version="26.2.8">
  <diagram name="PÃ¡gina-1" id="PQcoGeQAGZTrUzWzKZ6_">
    <mxGraphModel dx="1044" dy="658" grid="1" gridSize="10" guides="1" tooltips="1" connect="1" arrows="1" fold="1" page="1" pageScale="1" pageWidth="827" pageHeight="1169" math="0" shadow="0">
      <root>
        <mxCell id="0" />
        <mxCell id="1" parent="0" />
        <mxCell id="kfqIp8Cv0JPG-PEPqMTf-1" value="Empleado" style="swimlane;fontStyle=1;align=center;verticalAlign=top;childLayout=stackLayout;horizontal=1;startSize=26;horizontalStack=0;resizeParent=1;resizeParentMax=0;resizeLast=0;collapsible=1;marginBottom=0;whiteSpace=wrap;html=1;" vertex="1" parent="1">
          <mxGeometry x="320" y="40" width="170" height="120" as="geometry" />
        </mxCell>
        <mxCell id="kfqIp8Cv0JPG-PEPqMTf-2" value="&lt;div&gt;-Nombre: String&lt;/div&gt;&lt;div&gt;-edad: int&lt;/div&gt;&lt;div&gt;&lt;br&gt;&lt;/div&gt;&lt;div&gt;&lt;br&gt;&lt;/div&gt;&lt;div&gt;&lt;br&gt;&lt;/div&gt;&lt;div&gt;&lt;br&gt;&lt;/div&gt;&lt;div&gt;&lt;br&gt;&lt;/div&gt;&lt;div&gt;&lt;br&gt;&lt;/div&gt;" style="text;strokeColor=none;fillColor=none;align=left;verticalAlign=top;spacingLeft=4;spacingRight=4;overflow=hidden;rotatable=0;points=[[0,0.5],[1,0.5]];portConstraint=eastwest;whiteSpace=wrap;html=1;" vertex="1" parent="kfqIp8Cv0JPG-PEPqMTf-1">
          <mxGeometry y="26" width="170" height="44" as="geometry" />
        </mxCell>
        <mxCell id="kfqIp8Cv0JPG-PEPqMTf-3" value="" style="line;strokeWidth=1;fillColor=none;align=left;verticalAlign=middle;spacingTop=-1;spacingLeft=3;spacingRight=3;rotatable=0;labelPosition=right;points=[];portConstraint=eastwest;strokeColor=inherit;" vertex="1" parent="kfqIp8Cv0JPG-PEPqMTf-1">
          <mxGeometry y="70" width="170" height="8" as="geometry" />
        </mxCell>
        <mxCell id="kfqIp8Cv0JPG-PEPqMTf-4" value="&lt;div&gt;+calcularSalario(): double&lt;/div&gt;&lt;div&gt;+toString(): String&lt;/div&gt;" style="text;strokeColor=none;fillColor=none;align=left;verticalAlign=top;spacingLeft=4;spacingRight=4;overflow=hidden;rotatable=0;points=[[0,0.5],[1,0.5]];portConstraint=eastwest;whiteSpace=wrap;html=1;" vertex="1" parent="kfqIp8Cv0JPG-PEPqMTf-1">
          <mxGeometry y="78" width="170" height="42" as="geometry" />
        </mxCell>
        <mxCell id="kfqIp8Cv0JPG-PEPqMTf-9" style="edgeStyle=orthogonalEdgeStyle;rounded=0;orthogonalLoop=1;jettySize=auto;html=1;" edge="1" parent="1">
          <mxGeometry relative="1" as="geometry">
            <mxPoint x="410" y="170" as="targetPoint" />
            <mxPoint x="230" y="220" as="sourcePoint" />
            <Array as="points">
              <mxPoint x="230" y="210" />
              <mxPoint x="411" y="210" />
            </Array>
          </mxGeometry>
        </mxCell>
        <mxCell id="kfqIp8Cv0JPG-PEPqMTf-10" value="EmpleadoPlanta" style="swimlane;fontStyle=1;align=center;verticalAlign=top;childLayout=stackLayout;horizontal=1;startSize=26;horizontalStack=0;resizeParent=1;resizeParentMax=0;resizeLast=0;collapsible=1;marginBottom=0;whiteSpace=wrap;html=1;" vertex="1" parent="1">
          <mxGeometry x="150" y="220" width="160" height="100" as="geometry" />
        </mxCell>
        <mxCell id="kfqIp8Cv0JPG-PEPqMTf-11" value="-salarioFijo: double" style="text;strokeColor=none;fillColor=none;align=left;verticalAlign=top;spacingLeft=4;spacingRight=4;overflow=hidden;rotatable=0;points=[[0,0.5],[1,0.5]];portConstraint=eastwest;whiteSpace=wrap;html=1;" vertex="1" parent="kfqIp8Cv0JPG-PEPqMTf-10">
          <mxGeometry y="26" width="160" height="26" as="geometry" />
        </mxCell>
        <mxCell id="kfqIp8Cv0JPG-PEPqMTf-12" value="" style="line;strokeWidth=1;fillColor=none;align=left;verticalAlign=middle;spacingTop=-1;spacingLeft=3;spacingRight=3;rotatable=0;labelPosition=right;points=[];portConstraint=eastwest;strokeColor=inherit;" vertex="1" parent="kfqIp8Cv0JPG-PEPqMTf-10">
          <mxGeometry y="52" width="160" height="8" as="geometry" />
        </mxCell>
        <mxCell id="kfqIp8Cv0JPG-PEPqMTf-13" value="&lt;div&gt;+calcularSalario()&lt;/div&gt;&lt;div&gt;+toString()&lt;/div&gt;" style="text;strokeColor=none;fillColor=none;align=left;verticalAlign=top;spacingLeft=4;spacingRight=4;overflow=hidden;rotatable=0;points=[[0,0.5],[1,0.5]];portConstraint=eastwest;whiteSpace=wrap;html=1;" vertex="1" parent="kfqIp8Cv0JPG-PEPqMTf-10">
          <mxGeometry y="60" width="160" height="40" as="geometry" />
        </mxCell>
        <mxCell id="kfqIp8Cv0JPG-PEPqMTf-18" style="edgeStyle=orthogonalEdgeStyle;rounded=0;orthogonalLoop=1;jettySize=auto;html=1;" edge="1" parent="1" source="kfqIp8Cv0JPG-PEPqMTf-14">
          <mxGeometry relative="1" as="geometry">
            <mxPoint x="410" y="170" as="targetPoint" />
            <Array as="points">
              <mxPoint x="550" y="210" />
              <mxPoint x="411" y="210" />
            </Array>
          </mxGeometry>
        </mxCell>
        <mxCell id="kfqIp8Cv0JPG-PEPqMTf-14" value="EmpeladoPorHoras" style="swimlane;fontStyle=1;align=center;verticalAlign=top;childLayout=stackLayout;horizontal=1;startSize=26;horizontalStack=0;resizeParent=1;resizeParentMax=0;resizeLast=0;collapsible=1;marginBottom=0;whiteSpace=wrap;html=1;" vertex="1" parent="1">
          <mxGeometry x="470" y="220" width="170" height="120" as="geometry" />
        </mxCell>
        <mxCell id="kfqIp8Cv0JPG-PEPqMTf-15" value="&lt;div&gt;-pagoPorHora: double&lt;/div&gt;&lt;div&gt;-horasTrabajadas: int&lt;/div&gt;" style="text;strokeColor=none;fillColor=none;align=left;verticalAlign=top;spacingLeft=4;spacingRight=4;overflow=hidden;rotatable=0;points=[[0,0.5],[1,0.5]];portConstraint=eastwest;whiteSpace=wrap;html=1;" vertex="1" parent="kfqIp8Cv0JPG-PEPqMTf-14">
          <mxGeometry y="26" width="170" height="44" as="geometry" />
        </mxCell>
        <mxCell id="kfqIp8Cv0JPG-PEPqMTf-16" value="" style="line;strokeWidth=1;fillColor=none;align=left;verticalAlign=middle;spacingTop=-1;spacingLeft=3;spacingRight=3;rotatable=0;labelPosition=right;points=[];portConstraint=eastwest;strokeColor=inherit;" vertex="1" parent="kfqIp8Cv0JPG-PEPqMTf-14">
          <mxGeometry y="70" width="170" height="8" as="geometry" />
        </mxCell>
        <mxCell id="kfqIp8Cv0JPG-PEPqMTf-17" value="&lt;div&gt;+calcularSalario()&lt;/div&gt;&lt;div&gt;+toString()&lt;/div&gt;" style="text;strokeColor=none;fillColor=none;align=left;verticalAlign=top;spacingLeft=4;spacingRight=4;overflow=hidden;rotatable=0;points=[[0,0.5],[1,0.5]];portConstraint=eastwest;whiteSpace=wrap;html=1;" vertex="1" parent="kfqIp8Cv0JPG-PEPqMTf-14">
          <mxGeometry y="78" width="170" height="42" as="geometry" />
        </mxCell>
      </root>
    </mxGraphModel>
  </diagram>
</mxfile>
